<?xml version="1.0" standalone="no"?>
<!DOCTYPE svg PUBLIC "-//W3C//DTD SVG 20010904//EN"
 "http://www.w3.org/TR/2001/REC-SVG-20010904/DTD/svg10.dtd">
<svg version="1.0" xmlns="http://www.w3.org/2000/svg"
 width="1080.000000pt" height="1080.000000pt" viewBox="0 0 1080.000000 1080.000000"
 preserveAspectRatio="xMidYMid meet">

<g transform="translate(0.000000,1080.000000) scale(0.100000,-0.100000)"
fill="#000000" stroke="none">
<path d="M1580 6465 c0 -1367 2 -1545 15 -1545 8 0 15 -4 15 -9 0 -5 10 -13
22 -17 12 -3 28 -13 36 -20 7 -8 20 -14 28 -14 8 0 14 -4 14 -9 0 -5 11 -12
25 -15 14 -4 25 -10 25 -15 0 -5 14 -12 30 -16 17 -4 30 -11 30 -16 0 -5 11
-14 25 -19 14 -5 25 -14 25 -20 0 -5 11 -10 25 -10 14 0 28 -6 31 -14 3 -8 19
-18 35 -21 16 -4 29 -11 29 -16 0 -5 7 -9 15 -9 9 0 18 -7 21 -15 4 -8 12 -15
19 -15 8 0 20 -6 27 -13 7 -8 30 -20 51 -26 20 -7 37 -16 37 -21 0 -4 11 -11
25 -14 14 -4 25 -10 25 -15 0 -5 14 -12 30 -16 17 -4 30 -11 30 -16 0 -5 11
-11 25 -15 14 -3 25 -10 25 -14 0 -4 14 -13 30 -19 17 -5 30 -14 30 -20 0 -5
14 -12 30 -16 17 -4 30 -10 30 -15 0 -5 14 -11 30 -15 17 -4 30 -11 30 -16 0
-5 7 -9 15 -9 9 0 18 -6 21 -14 3 -8 16 -17 30 -20 13 -4 24 -10 24 -15 0 -5
17 -15 37 -22 21 -6 44 -18 51 -26 7 -7 22 -13 33 -13 10 0 19 -7 19 -15 0 -8
9 -15 20 -15 11 0 20 -4 20 -10 0 -5 11 -12 25 -16 14 -3 25 -10 25 -14 0 -5
14 -11 30 -15 17 -4 30 -11 30 -16 0 -5 11 -14 25 -19 14 -5 25 -14 25 -19 0
-5 14 -12 30 -16 17 -4 30 -10 30 -15 0 -5 14 -11 30 -15 17 -4 30 -11 30 -16
0 -5 7 -9 15 -9 9 0 18 -7 21 -15 4 -8 12 -15 19 -15 8 0 20 -6 27 -13 7 -8
26 -17 41 -21 l27 -6 0 1549 0 1549 -30 14 c-16 7 -30 16 -30 20 0 3 -13 9
-30 13 -16 4 -30 11 -30 16 0 5 -7 9 -15 9 -9 0 -18 6 -21 14 -3 8 -19 18 -35
21 -16 4 -29 11 -29 16 0 5 -11 11 -25 15 -14 3 -25 10 -25 14 0 5 -16 14 -35
21 -19 7 -35 16 -35 20 0 4 -13 10 -29 14 -16 3 -32 13 -35 21 -3 8 -12 14
-21 14 -8 0 -15 4 -15 9 0 5 -13 12 -29 16 -16 3 -32 13 -35 21 -3 8 -12 14
-21 14 -8 0 -15 4 -15 8 0 4 -16 14 -35 21 -19 7 -35 16 -35 21 0 5 -13 11
-30 15 -16 4 -30 10 -30 15 0 4 -12 11 -26 14 -14 4 -31 11 -37 17 -49 40 -62
49 -74 49 -7 0 -13 4 -13 9 0 5 -14 12 -31 16 -17 4 -33 13 -36 21 -3 8 -12
14 -19 14 -8 0 -17 7 -20 15 -4 8 -17 15 -30 15 -14 0 -27 6 -30 14 -3 8 -19
18 -35 21 -16 4 -29 10 -29 14 0 4 -16 13 -35 21 -19 8 -35 17 -35 21 0 4 -12
10 -26 13 -15 4 -32 12 -40 19 -31 28 -42 35 -64 42 -13 4 -30 14 -38 21 -7 8
-20 14 -28 14 -8 0 -14 4 -14 8 0 4 -16 14 -35 21 -19 7 -35 16 -35 21 0 5
-13 11 -29 15 -16 3 -32 13 -35 21 -3 8 -12 14 -21 14 -8 0 -15 4 -15 9 0 5
-13 12 -29 16 -16 3 -32 13 -35 21 -3 8 -17 14 -31 14 l-25 0 0 -1545z"/>
<path d="M9188 8003 c-10 -2 -18 -9 -18 -14 0 -5 -7 -9 -15 -9 -9 0 -18 -6
-21 -14 -3 -8 -17 -17 -31 -21 -14 -3 -32 -13 -40 -20 -8 -8 -23 -15 -34 -15
-10 0 -19 -4 -19 -9 0 -5 -15 -15 -32 -22 -18 -7 -39 -19 -46 -26 -7 -7 -20
-13 -28 -13 -8 0 -14 -4 -14 -10 0 -5 -7 -10 -15 -10 -9 0 -18 -6 -21 -14 -3
-8 -19 -18 -35 -21 -16 -4 -29 -10 -29 -15 0 -5 -13 -11 -30 -15 -16 -4 -30
-10 -30 -14 0 -4 -16 -13 -35 -21 -19 -7 -36 -19 -39 -27 -3 -7 -12 -13 -21
-13 -8 0 -15 -4 -15 -9 0 -5 -12 -12 -26 -15 -15 -4 -32 -12 -40 -19 -34 -30
-44 -36 -83 -48 -22 -7 -41 -16 -41 -21 0 -4 -6 -8 -13 -8 -12 0 -25 -9 -74
-49 -6 -6 -23 -13 -37 -17 -14 -3 -26 -10 -26 -15 0 -5 -7 -9 -15 -9 -9 0 -18
-7 -21 -15 -4 -8 -15 -15 -25 -15 -10 0 -28 -9 -39 -20 -11 -11 -31 -22 -45
-26 -14 -3 -25 -10 -25 -14 0 -5 -13 -11 -29 -15 -16 -3 -32 -13 -35 -21 -3
-8 -12 -14 -21 -14 -8 0 -15 -4 -15 -10 0 -5 -11 -12 -25 -16 -14 -3 -25 -9
-25 -14 0 -4 -18 -12 -40 -19 -22 -6 -40 -16 -40 -20 0 -5 -11 -12 -25 -15
-14 -4 -25 -11 -25 -16 0 -6 -7 -10 -15 -10 -9 0 -18 -6 -21 -14 -3 -8 -19
-18 -35 -21 -16 -4 -29 -11 -29 -16 0 -5 -7 -9 -15 -9 -9 0 -18 -6 -21 -14 -3
-8 -19 -18 -35 -21 l-29 -7 0 -644 c0 -423 -3 -644 -10 -644 -5 0 -10 -7 -10
-15 0 -8 5 -15 10 -15 6 0 10 -14 10 -31 0 -29 2 -31 28 -24 15 3 29 11 30 16
2 5 10 9 18 9 8 0 17 7 20 15 4 8 13 15 20 15 8 0 17 7 20 15 4 8 17 15 30 15
14 0 27 6 30 14 3 8 25 19 49 26 24 7 46 18 49 26 3 8 12 14 21 14 8 0 15 4
15 10 0 5 12 13 27 16 15 4 32 11 38 16 5 5 21 17 34 28 13 11 30 20 38 20 7
0 13 4 13 9 0 5 14 12 31 16 17 4 33 13 36 20 2 8 18 17 34 20 16 4 29 11 29
16 0 5 7 9 15 9 9 0 18 6 21 14 3 8 19 18 35 21 16 4 29 11 29 16 0 5 7 9 15
9 9 0 18 7 21 15 4 8 15 15 25 15 20 0 54 16 77 38 7 6 20 12 28 12 8 0 14 4
14 9 0 5 10 13 22 17 12 3 28 13 36 20 7 8 19 14 27 14 7 0 15 7 19 15 3 8 12
15 21 15 8 0 15 4 15 9 0 5 14 12 31 16 17 4 33 13 36 21 3 8 16 14 29 14 14
0 27 7 30 15 4 8 13 15 20 15 8 0 17 6 20 14 3 8 19 18 35 21 16 4 29 11 29
16 0 5 6 9 14 9 8 0 21 6 28 13 7 7 28 20 46 28 17 7 32 17 32 21 0 3 14 9 30
13 17 4 30 10 30 15 0 4 12 11 26 14 27 7 43 18 72 49 9 9 26 17 38 17 14 0
24 8 28 23 3 12 6 322 6 690 0 629 -1 667 -17 666 -10 -1 -26 -3 -35 -6z"/>
<path d="M3590 4840 c0 -1807 2 -2020 15 -2020 9 0 18 -6 21 -14 3 -8 19 -18
35 -21 16 -4 29 -10 29 -15 0 -4 12 -11 28 -15 15 -4 35 -15 45 -26 10 -10 25
-19 33 -19 9 0 22 -6 29 -12 32 -29 43 -36 65 -43 13 -4 30 -14 38 -21 7 -8
19 -14 27 -14 7 0 15 -6 18 -14 3 -8 19 -17 36 -21 17 -4 31 -10 31 -15 0 -5
14 -11 30 -15 17 -4 30 -11 30 -16 0 -5 7 -9 15 -9 9 0 18 -7 21 -15 4 -8 13
-15 20 -15 8 0 17 -7 20 -15 4 -8 17 -15 30 -15 12 0 27 -6 31 -13 4 -7 24
-19 43 -27 19 -8 41 -20 48 -27 7 -7 20 -13 28 -13 8 0 14 -4 14 -10 0 -5 12
-13 27 -16 15 -4 32 -11 38 -16 5 -5 20 -17 33 -28 13 -10 37 -22 53 -25 16
-4 29 -11 29 -16 0 -5 7 -9 15 -9 9 0 18 -7 21 -15 4 -8 13 -15 20 -15 8 0 17
-7 20 -15 4 -8 17 -15 30 -15 14 0 27 -6 30 -14 3 -8 19 -18 35 -21 16 -4 29
-10 29 -14 0 -4 16 -13 35 -21 19 -8 35 -17 35 -21 0 -4 12 -10 26 -13 15 -4
33 -14 41 -21 8 -8 23 -15 33 -15 10 0 20 -7 24 -15 3 -8 12 -15 21 -15 8 0
15 -4 15 -10 0 -5 11 -12 25 -16 14 -3 25 -10 25 -14 0 -5 14 -11 31 -15 17
-4 33 -13 36 -21 3 -8 12 -14 19 -14 8 0 17 -7 20 -15 4 -9 19 -15 35 -15 l29
0 0 2004 c0 1809 -2 2006 -16 2020 -8 9 -21 16 -29 16 -7 0 -15 7 -19 15 -3 8
-12 15 -21 15 -8 0 -15 5 -15 11 0 5 -13 15 -30 20 -16 6 -30 15 -30 20 0 5
-9 9 -19 9 -11 0 -26 7 -35 15 -8 8 -22 15 -30 15 -9 0 -16 7 -16 15 0 8 -9
15 -19 15 -11 0 -26 7 -34 15 -8 7 -26 17 -41 21 -14 3 -26 9 -26 13 0 4 -16
13 -35 21 -19 7 -36 19 -39 27 -3 7 -12 13 -21 13 -8 0 -15 4 -15 9 0 5 -13
12 -30 16 -16 4 -30 10 -30 15 0 5 -13 11 -30 15 -16 4 -30 13 -30 21 0 8 -9
14 -20 14 -11 0 -20 4 -20 9 0 5 -17 15 -37 22 -35 11 -45 17 -77 46 -8 7 -25
15 -39 18 -14 4 -28 13 -31 21 -3 8 -15 14 -26 14 -11 0 -20 4 -20 10 0 5 -11
12 -25 16 -14 3 -25 9 -25 13 0 4 -16 13 -35 21 -19 8 -35 17 -35 21 0 4 -13
10 -29 14 -16 3 -32 13 -35 21 -3 8 -12 14 -21 14 -8 0 -15 4 -15 9 0 5 -13
12 -30 16 -16 4 -30 10 -30 15 0 5 -16 14 -35 21 -19 7 -35 16 -35 20 0 4 -11
10 -25 13 -14 4 -25 10 -25 15 0 5 -13 12 -29 16 -16 3 -32 13 -35 21 -3 8
-12 14 -21 14 -8 0 -15 5 -15 10 0 6 -7 10 -15 10 -9 0 -18 7 -21 15 -4 8 -15
15 -25 15 -23 0 -61 20 -72 38 -4 6 -19 12 -31 12 -13 0 -26 7 -30 15 -3 8
-12 15 -21 15 -13 0 -15 -213 -15 -2020z"/>
<path d="M7184 6846 c-3 -8 -18 -18 -34 -21 -16 -3 -31 -12 -33 -20 -3 -7 -19
-16 -36 -20 -17 -4 -31 -11 -31 -16 0 -5 -11 -11 -25 -15 -14 -3 -25 -10 -25
-15 0 -5 -6 -9 -14 -9 -8 0 -21 -6 -28 -14 -8 -7 -24 -17 -36 -20 -12 -4 -22
-11 -22 -16 0 -5 -13 -11 -29 -15 -16 -3 -32 -12 -34 -20 -3 -7 -19 -16 -36
-20 -17 -4 -31 -11 -31 -16 0 -5 -7 -9 -15 -9 -9 0 -18 -6 -21 -14 -3 -8 -19
-18 -35 -21 -16 -4 -29 -11 -29 -16 0 -5 -7 -9 -15 -9 -7 0 -18 -6 -22 -14 -4
-7 -26 -19 -48 -26 -22 -7 -46 -19 -53 -27 -7 -7 -19 -13 -27 -13 -7 0 -15 -7
-19 -15 -3 -8 -15 -15 -26 -15 -11 0 -20 -4 -20 -10 0 -5 -11 -12 -24 -16 -14
-3 -27 -12 -30 -20 -3 -8 -15 -14 -26 -14 -11 0 -20 -4 -20 -9 0 -5 -17 -15
-37 -22 -21 -6 -42 -18 -46 -25 -4 -8 -15 -14 -22 -14 -8 0 -15 -4 -15 -10 0
-5 -7 -10 -15 -10 -9 0 -18 -6 -21 -14 -3 -8 -19 -18 -35 -21 -16 -4 -29 -11
-29 -16 0 -5 -6 -9 -14 -9 -8 0 -21 -6 -28 -13 -7 -7 -29 -19 -48 -27 -19 -8
-41 -20 -48 -27 -7 -7 -20 -13 -28 -13 -8 0 -14 -4 -14 -10 0 -5 -7 -10 -15
-10 -9 0 -18 -6 -21 -14 -3 -8 -19 -18 -35 -21 -16 -4 -29 -10 -29 -15 0 -5
-13 -11 -30 -15 -16 -4 -30 -10 -30 -15 0 -5 -14 -11 -31 -15 -17 -4 -33 -13
-36 -21 -3 -8 -12 -14 -19 -14 -8 0 -17 -6 -20 -14 -3 -8 -16 -17 -30 -20
l-24 -6 0 -2015 0 -2015 24 0 c13 0 26 7 30 15 3 8 12 15 21 15 8 0 15 4 15 9
0 5 14 12 31 16 17 4 33 13 36 20 2 8 18 17 34 20 16 4 29 11 29 16 0 5 7 9
15 9 9 0 18 6 21 14 3 8 19 18 35 21 16 4 29 11 29 16 0 5 6 9 14 9 8 0 21 6
28 13 7 7 28 20 46 28 17 7 32 17 32 21 0 3 14 9 30 13 17 4 30 10 30 15 0 5
13 11 29 15 16 3 32 13 35 21 3 8 12 14 20 14 7 0 16 7 20 15 3 8 12 15 21 15
8 0 15 4 15 10 0 5 18 13 40 16 24 4 40 12 40 20 0 8 11 16 25 20 14 3 25 10
25 14 0 5 14 11 30 15 17 4 30 11 30 16 0 5 7 9 15 9 9 0 18 6 21 14 3 7 23
19 45 26 21 7 39 17 39 21 0 4 13 10 29 14 16 3 32 13 35 21 3 8 15 14 26 14
11 0 20 4 20 10 0 5 11 12 24 16 14 3 27 12 30 20 3 8 12 14 21 14 8 0 15 4
15 9 0 5 14 12 31 16 17 4 33 13 35 20 3 7 16 16 30 19 13 4 24 10 24 15 0 5
14 12 30 16 17 4 30 11 30 16 0 5 11 11 25 15 14 3 25 10 25 15 0 5 6 9 14 9
8 0 21 6 28 13 7 7 28 20 46 28 17 7 32 17 32 21 0 3 13 9 29 13 16 3 32 13
35 21 3 8 10 14 16 14 41 0 40 -73 40 2019 0 1321 -3 1991 -10 1991 -5 0 -10
7 -10 15 0 19 -29 20 -36 1z"/>
<path d="M9200 6290 c0 -5 -6 -10 -13 -10 -8 0 -24 -9 -37 -20 -13 -11 -29
-20 -37 -20 -7 0 -13 -4 -13 -10 0 -5 -11 -12 -25 -16 -14 -3 -25 -9 -25 -13
0 -4 -16 -13 -35 -21 -19 -8 -35 -17 -35 -21 0 -4 -13 -10 -30 -14 -16 -4 -30
-11 -30 -16 0 -5 -7 -9 -15 -9 -9 0 -18 -6 -21 -14 -3 -8 -18 -18 -34 -21 -16
-3 -31 -13 -34 -21 -3 -8 -12 -14 -21 -14 -8 0 -15 -4 -15 -8 0 -5 -18 -14
-40 -21 -22 -6 -40 -16 -40 -21 0 -6 -7 -10 -15 -10 -9 0 -18 -6 -21 -14 -3
-8 -19 -18 -35 -21 -16 -4 -29 -10 -29 -15 0 -4 -12 -11 -26 -14 -15 -4 -32
-12 -40 -19 -30 -27 -40 -34 -71 -47 -18 -8 -33 -18 -33 -22 0 -3 -13 -9 -29
-13 -16 -3 -32 -13 -35 -21 -3 -8 -17 -14 -31 -14 -16 0 -25 -6 -25 -15 0 -8
-9 -15 -20 -15 -11 0 -20 -4 -20 -10 0 -5 -11 -12 -25 -16 -14 -3 -25 -10 -25
-14 0 -5 -16 -14 -35 -20 -19 -6 -35 -15 -35 -20 0 -5 -13 -11 -29 -15 -16 -3
-32 -13 -35 -21 -3 -8 -12 -14 -21 -14 -8 0 -15 -4 -15 -9 0 -5 -13 -12 -30
-16 -16 -4 -30 -11 -30 -16 0 -5 -7 -9 -15 -9 -9 0 -18 -6 -21 -14 -3 -8 -19
-18 -36 -21 -16 -4 -32 -13 -35 -20 -2 -8 -18 -17 -34 -20 -16 -4 -29 -11 -29
-16 0 -5 -11 -11 -25 -15 -14 -3 -25 -10 -25 -14 0 -4 -11 -11 -25 -14 -14 -4
-25 -10 -25 -15 0 -5 -13 -12 -29 -16 -35 -7 -92 -56 -73 -63 16 -5 18 -1292
2 -1292 -15 0 -12 -19 4 -36 17 -16 46 -19 46 -4 0 5 11 12 25 16 14 3 25 10
25 14 0 5 10 12 22 16 12 3 28 13 36 20 7 8 20 14 28 14 8 0 14 4 14 9 0 5 14
12 30 16 17 4 30 11 30 16 0 5 11 14 25 19 14 5 25 14 25 19 0 5 14 12 30 16
17 4 30 10 30 15 0 5 14 11 30 15 17 4 30 11 30 16 0 5 7 9 15 9 9 0 18 7 21
15 4 8 12 15 19 15 8 0 20 6 27 13 7 8 30 20 51 26 20 7 37 17 37 22 0 5 11
11 25 15 14 3 25 10 25 14 0 5 13 11 29 15 16 3 32 13 35 21 3 8 15 14 26 14
11 0 20 4 20 10 0 5 11 12 24 16 14 3 27 12 30 19 2 7 18 16 35 20 17 4 31 11
31 16 0 5 7 9 15 9 9 0 18 6 21 14 3 8 19 18 35 21 16 4 29 10 29 15 0 4 11
11 25 14 14 4 25 10 25 15 0 5 17 15 37 22 21 6 44 18 51 26 7 7 20 13 28 13
8 0 14 5 14 10 0 6 7 10 15 10 9 0 18 6 21 14 3 8 19 18 35 21 16 4 29 10 29
15 0 5 13 11 29 15 16 3 32 12 34 20 3 7 19 16 35 20 17 3 33 13 36 21 3 8 12
14 21 14 8 0 15 4 15 9 0 5 12 12 26 15 15 4 32 12 40 19 31 28 42 35 62 41
12 4 22 11 22 16 0 4 9 10 20 13 20 5 20 14 20 691 0 679 0 686 -20 686 -11 0
-20 -4 -20 -10z"/>
</g>
</svg>
